<svg version="1.1" xmlns="http://www.w3.org/2000/svg" viewBox="0 0 424.7372957549113 443.972715499" width="424.7372957549113" height="443.972715499" filter="invert(93%) hue-rotate(180deg)" class="excalidraw-svg">
  <!-- svg-source:excalidraw -->
  
  <defs>
    <style class="style-fonts">
      
    </style>
    
  </defs>
  <rect x="0" y="0" width="424.7372957549113" height="443.972715499" fill="#ffffff"></rect><g stroke-linecap="round" transform="translate(10 10) rotate(0 202.14722646795087 211.9863577495)"><path d="M260.77 9.04 C278.52 11.02, 296.18 23.54, 311.62 33.97 C327.05 44.4, 341.55 57.38, 353.39 71.61 C365.22 85.84, 374.75 102.3, 382.63 119.35 C390.5 136.4, 397.25 155.25, 400.66 173.92 C404.08 192.59, 404.68 212.51, 403.1 231.37 C401.53 250.22, 397.52 269.34, 391.22 287.05 C384.92 304.75, 376.19 322.28, 365.29 337.6 C354.4 352.92, 340.26 367.18, 325.86 378.97 C311.45 390.77, 295.7 401.17, 278.85 408.38 C262 415.59, 242.96 419.96, 224.74 422.21 C206.52 424.46, 187.36 424.98, 169.55 421.88 C151.75 418.78, 134.17 411.58, 117.91 403.61 C101.65 395.64, 85.89 386.34, 72.02 374.07 C58.15 361.81, 44.97 346.07, 34.72 330.03 C24.46 313.99, 16.18 295.68, 10.51 277.81 C4.83 259.94, 1.68 241.64, 0.69 222.81 C-0.31 203.97, 0.55 183.71, 4.52 164.82 C8.49 145.93, 15.63 126.35, 24.49 109.48 C33.34 92.62, 44.89 77.09, 57.64 63.61 C70.39 50.13, 85.43 38.23, 101.01 28.6 C116.58 18.97, 133.36 10.57, 151.1 5.84 C168.83 1.12, 187.57 -1, 207.44 0.24 C227.31 1.49, 258.19 9.93, 270.33 13.3 C282.46 16.68, 281.35 17.16, 280.23 20.5 M194.93 -0.52 C212.21 -4.2, 232.93 1.82, 250.63 6.63 C268.32 11.44, 285.24 18.78, 301.09 28.35 C316.93 37.91, 332.88 50.39, 345.67 64 C358.47 77.6, 368.81 93.66, 377.85 109.99 C386.9 126.31, 395.44 143.62, 399.95 161.94 C404.45 180.26, 405.9 200.96, 404.87 219.92 C403.83 238.87, 399.64 257.32, 393.74 275.65 C387.84 293.98, 379.55 313.57, 369.47 329.9 C359.38 346.23, 346.5 361.55, 333.23 373.63 C319.96 385.72, 306.2 394.43, 289.86 402.39 C273.52 410.34, 253.1 417.83, 235.17 421.39 C217.24 424.95, 200.17 426.07, 182.27 423.76 C164.36 421.45, 144.63 414.72, 127.75 407.54 C110.87 400.36, 95.72 392.11, 80.97 380.67 C66.22 369.24, 50.39 354.26, 39.25 338.92 C28.12 323.58, 20.57 306.2, 14.17 288.65 C7.77 271.1, 2.49 252.28, 0.86 233.59 C-0.77 214.91, 1 195.3, 4.4 176.53 C7.81 157.75, 13.54 138.25, 21.3 120.94 C29.06 103.64, 39.12 86.91, 50.98 72.69 C62.85 58.48, 77.46 46.03, 92.48 35.65 C107.49 25.28, 123.63 16.52, 141.07 10.44 C158.5 4.35, 187.92 -0.01, 197.09 -0.85 C206.25 -1.7, 196.01 1.71, 196.07 5.36" stroke="#1e1e1e" stroke-width="2" fill="none"></path></g><g stroke-linecap="round" transform="translate(40.90010082093636 61.651283551428264) rotate(0 171.76847417905788 160.31240687059156)"><path d="M184.26 0.81 C200.24 -0.65, 217.85 4.76, 233.7 10.36 C249.56 15.95, 265.98 24.42, 279.38 34.38 C292.79 44.34, 304.6 56.97, 314.12 70.12 C323.64 83.27, 331.71 98.37, 336.51 113.29 C341.32 128.2, 343.12 144.07, 342.93 159.63 C342.73 175.19, 340.32 191.38, 335.35 206.63 C330.38 221.89, 322.57 238.07, 313.11 251.16 C303.64 264.25, 291.65 275.47, 278.56 285.16 C265.46 294.86, 250.33 303.41, 234.53 309.32 C218.74 315.24, 200.5 319.54, 183.8 320.65 C167.11 321.76, 150.55 319.53, 134.39 315.98 C118.23 312.43, 101.65 307.13, 86.85 299.35 C72.05 291.58, 57.37 280.87, 45.59 269.34 C33.81 257.81, 23.32 244.26, 16.16 230.18 C8.99 216.1, 5.14 200.53, 2.61 184.86 C0.09 169.19, -1.38 151.71, 1 136.14 C3.38 120.58, 9.54 105.51, 16.89 91.49 C24.24 77.47, 33.67 63.7, 45.11 52.02 C56.54 40.35, 70.87 29.6, 85.5 21.44 C100.12 13.28, 115.13 6.39, 132.86 3.06 C150.59 -0.27, 181.04 1.19, 191.89 1.47 C202.74 1.74, 198.22 2.04, 197.95 4.71 M124.61 6.52 C139.2 0.09, 160.38 -0.78, 177.25 -0.57 C194.12 -0.36, 210.16 2.6, 225.82 7.79 C241.48 12.99, 257.32 21.25, 271.21 30.59 C285.09 39.93, 298.92 51.22, 309.15 63.84 C319.37 76.45, 326.96 91.38, 332.56 106.28 C338.17 121.17, 342.09 137.7, 342.79 153.2 C343.49 168.71, 340.88 184.08, 336.76 199.3 C332.64 214.53, 326.88 230.75, 318.05 244.56 C309.22 258.38, 296.55 271.7, 283.79 282.19 C271.03 292.67, 256.67 301.06, 241.49 307.45 C226.32 313.84, 209.51 318.9, 192.74 320.55 C175.96 322.19, 157.56 320.09, 140.83 317.3 C124.09 314.52, 107.03 310.87, 92.34 303.82 C77.66 296.77, 64.48 286.47, 52.73 274.98 C40.98 263.49, 29.87 249.03, 21.86 234.89 C13.85 220.75, 8.17 205.44, 4.69 190.14 C1.22 174.83, -0.42 158.6, 1 143.07 C2.41 127.53, 6.8 111.1, 13.17 96.94 C19.54 82.77, 28.45 69.89, 39.22 58.08 C49.98 46.26, 63.09 34.91, 77.78 26.04 C92.47 17.17, 119.21 7.85, 127.36 4.85 C135.5 1.85, 126.07 5.41, 126.65 8.05" stroke="#1e1e1e" stroke-width="2" fill="none"></path></g><g stroke-linecap="round" transform="translate(105.99462072325719 114.40571037355704) rotate(0 106.90818332736526 106.45937024325836)"><path d="M96.91 -0.31 C109.04 -2.86, 124.57 1.54, 137.15 5.17 C149.74 8.79, 162.26 13.74, 172.41 21.46 C182.55 29.17, 191.26 40.28, 198.03 51.45 C204.79 62.61, 210.64 76.02, 212.98 88.45 C215.32 100.88, 214.59 113.44, 212.06 126.04 C209.52 138.63, 204.77 152.95, 197.77 164.02 C190.78 175.09, 180.41 184.86, 170.07 192.47 C159.74 200.08, 148.15 206.43, 135.75 209.7 C123.34 212.98, 108.65 213.43, 95.64 212.11 C82.63 210.79, 68.99 207.49, 57.7 201.79 C46.41 196.1, 36.3 187.58, 27.92 177.93 C19.53 168.28, 12.14 155.85, 7.38 143.88 C2.61 131.91, -0.53 118.95, -0.67 106.1 C-0.8 93.25, 1.63 78.71, 6.55 66.79 C11.47 54.86, 20.12 43.85, 28.85 34.55 C37.58 25.25, 46.4 16.91, 58.93 10.99 C71.45 5.08, 95.77 0.63, 103.99 -0.94 C112.2 -2.51, 108.13 -0.29, 108.23 1.57 M131.41 2.42 C143.41 3.64, 156.38 11.88, 167.11 19.16 C177.85 26.44, 188.52 35.62, 195.82 46.1 C203.12 56.59, 208.1 69.56, 210.89 82.08 C213.68 94.6, 214.67 108.37, 212.57 121.2 C210.47 134.02, 204.78 147.59, 198.28 159.03 C191.78 170.47, 183.47 181.88, 173.58 189.85 C163.68 197.82, 151.15 203.3, 138.89 206.86 C126.64 210.43, 112.6 211.89, 100.05 211.26 C87.51 210.63, 75.44 208.14, 63.62 203.08 C51.79 198.01, 38.32 190.21, 29.11 180.86 C19.9 171.51, 13.23 158.83, 8.33 146.99 C3.43 135.14, 0.28 122.54, -0.3 109.8 C-0.88 97.06, 0.73 82.65, 4.86 70.56 C8.99 58.46, 15.74 47.1, 24.47 37.24 C33.21 27.38, 45.79 17.27, 57.29 11.41 C68.8 5.55, 81.01 3.35, 93.49 2.1 C105.98 0.84, 125.64 3.22, 132.19 3.89 C138.75 4.56, 133.13 4.39, 132.84 6.12" stroke="#1e1e1e" stroke-width="2" fill="none"></path></g><g stroke-linecap="round"><g transform="translate(210.96340506780032 203.96143899838458) rotate(0 102.04520160646882 -76.87825706015802)"><path d="M-0.48 -0.54 C33.48 -26.05, 169.67 -128.09, 203.77 -153.73 M1.47 1.79 C35.24 -23.45, 169.01 -126.31, 202.66 -152.18" stroke="#1e1e1e" stroke-width="2" fill="none"></path></g><g transform="translate(210.96340506780032 203.96143899838458) rotate(0 102.04520160646882 -76.87825706015802)"><path d="M189.24 -131.09 C192.51 -137.93, 197.51 -143.72, 202.66 -152.18 M189.24 -131.09 C192.85 -135.52, 195.43 -140.66, 202.66 -152.18" stroke="#1e1e1e" stroke-width="2" fill="none"></path></g><g transform="translate(210.96340506780032 203.96143899838458) rotate(0 102.04520160646882 -76.87825706015802)"><path d="M178.82 -144.65 C185.16 -147.35, 193.3 -149.06, 202.66 -152.18 M178.82 -144.65 C185.02 -145.72, 190.15 -147.54, 202.66 -152.18" stroke="#1e1e1e" stroke-width="2" fill="none"></path></g></g><mask></mask><g transform="translate(197.06568432239698 211.15327178372195) rotate(0 20.12427520751953 9.671393058196045)"><text x="0" y="13.632795654833151" font-family="Excalifont, Xiaolai, Segoe UI Emoji" font-size="15.474228893113679px" fill="#1e1e1e" text-anchor="end" style="white-space: pre;" direction="rtl" dominant-baseline="alphabetic">الأسماء</text></g><g transform="translate(195.91374980989622 344.59275557552235) rotate(0 21.229278564453125 9.671393058196049)"><text x="0" y="13.632795654833151" font-family="Excalifont, Xiaolai, Segoe UI Emoji" font-size="15.474228893113679px" fill="#1e1e1e" text-anchor="end" style="white-space: pre;" direction="rtl" dominant-baseline="alphabetic">الصفات</text></g><g transform="translate(191.38024458331574 402.9267922973643) rotate(0 18.788482666015625 9.671393058196053)"><text x="0" y="13.632795654833156" font-family="Excalifont, Xiaolai, Segoe UI Emoji" font-size="15.474228893113683px" fill="#1e1e1e" text-anchor="end" style="white-space: pre;" direction="rtl" dominant-baseline="alphabetic">الأخبار</text></g></svg>